<svg xmlns="http://www.w3.org/2000/svg" xmlns:xlink="http://www.w3.org/1999/xlink" width="25" height="24" viewBox="0 0 25 24"><defs><path id="x39ka" d="M492.63 2174.98h-4.45a.74.74 0 0 1 0-1.48h4.45a.74.74 0 1 1 0 1.48zm0-4.45h-5.93a.74.74 0 1 1 0-1.49h5.93a.74.74 0 0 1 0 1.49zm0-4.45h-5.93a.74.74 0 0 1 0-1.49h5.93a.74.74 0 0 1 0 1.49zm-6.68 10.39v2.97c0 2.45-2 4.45-4.45 4.45h-7.42c-2.46 0-4.46-2-4.46-4.45v-2.97a4.44 4.44 0 0 1 3.01-4.2 7.9 7.9 0 0 1-1.52-4.7c0-4.1 2.99-7.43 6.68-7.43 3.69 0 6.68 3.32 6.68 7.42a7.9 7.9 0 0 1-1.52 4.71c1.74.6 3 2.25 3 4.2zm-2.97-8.9c0-3.29-2.32-5.95-5.2-5.95-2.86 0-5.19 2.66-5.19 5.94 0 3.28 2.33 5.94 5.2 5.94s5.2-2.66 5.2-5.94zm1.49 9.27c0-1.58-1.2-2.9-2.8-3.24a6.2 6.2 0 0 1-3.88 1.38 6.2 6.2 0 0 1-3.88-1.38c-1.6.35-2.8 1.66-2.8 3.24v2.22c0 1.85 1.63 3.34 3.64 3.34h6.08c2 0 3.64-1.5 3.64-3.34zm3.71 1.11h4.45a.74.74 0 0 1 0 1.49h-4.45a.74.74 0 0 1 0-1.49z"/></defs><g><g transform="translate(-469 -2160)"><use fill="#404041" xlink:href="#x39ka"/></g></g></svg>