<svg xmlns="http://www.w3.org/2000/svg" xmlns:xlink="http://www.w3.org/1999/xlink" width="24" height="24" viewBox="0 0 24 24"><defs><path id="4foja" d="M592.13 4075.73h.9v-1.46h-1.1c-1.72.07-2.07 1.04-2.1 2.05v1.18h-.88v1.46h.87v4.68h1.76v-4.68h1.31l.26-1.46h-1.57v-1.06c0-.35.22-.7.55-.7z"/><path id="4fojb" d="M579.88 4067.26h22.21c.33 0 .59.26.59.58v22.25c0 .32-.26.58-.59.58h-22.2a.59.59 0 0 1-.59-.58v-22.25c0-.32.26-.58.58-.58z"/><path id="4foje" d="M587 4086v-14h8v14zm5.13-9.27h.9v-1.46h-1.1c-1.72.07-2.07 1.04-2.1 2.05v1.18h-.88v1.46h.87v4.68h1.76v-4.68h1.31l.26-1.46h-1.57v-1.06c0-.35.22-.7.55-.7z"/><mask id="4fojd" width="2" height="2" x="-1" y="-1"><path fill="#fff" d="M588 4074h6v10h-6z"/><use xlink:href="#4foja"/></mask><filter id="4fojc" width="32.1" height="36.1" x="578" y="4064" filterUnits="userSpaceOnUse"><feOffset dx="2.1" dy="2.1" in="SourceGraphic" result="FeOffset1065Out"/><feGaussianBlur in="FeOffset1065Out" result="FeGaussianBlur1066Out" stdDeviation="0.8 0.8"/></filter><filter id="4fojf" width="200%" height="200%" x="-50%" y="-50%"><feGaussianBlur in="SourceGraphic" result="FeGaussianBlur1071Out" stdDeviation="0.5 0.5"/></filter><mask id="4fojg"><use fill="#fff" xlink:href="#4foja"/></mask></defs><g><g transform="translate(-579 -4067)"><use fill="#6788ce" xlink:href="#4fojb"/></g><g transform="translate(-579 -4067)"><g filter="url(#4fojc)"><use fill="none" stroke-opacity=".15" stroke-width="0" mask="url(&quot;#4fojd&quot;)" xlink:href="#4foja"/><use fill="#020303" fill-opacity=".15" xlink:href="#4foja"/></g><use fill="#eef1f9" xlink:href="#4foja"/><use fill="#fff" stroke="#fff" stroke-width="0" filter="url(#4fojf)" mask="url(&quot;#4fojg&quot;)" xlink:href="#4foje"/></g></g></svg>